<?xml version="1.0" standalone="no"?>
<!DOCTYPE svg PUBLIC "-//W3C//DTD SVG 20010904//EN"
 "http://www.w3.org/TR/2001/REC-SVG-20010904/DTD/svg10.dtd">
<svg version="1.0" xmlns="http://www.w3.org/2000/svg"
 width="512.000000pt" height="512.000000pt" viewBox="0 0 512.000000 512.000000"
 preserveAspectRatio="xMidYMid meet">

<g transform="translate(0.000000,512.000000) scale(0.100000,-0.100000)"
fill="#000000" stroke="none">
<path d="M2430 5114 c-14 -2 -56 -9 -95 -15 -217 -35 -458 -159 -616 -318
-234 -235 -333 -541 -332 -1026 0 -329 52 -592 162 -830 166 -356 503 -593
815 -573 130 9 194 64 158 137 -21 45 -59 71 -218 152 -169 86 -231 133 -300
224 -138 186 -210 427 -234 792 -11 168 -1 379 25 515 54 284 222 481 488 569
117 40 224 47 337 24 269 -55 458 -186 557 -387 51 -103 69 -164 87 -298 55
-390 10 -772 -119 -1030 -91 -181 -217 -285 -403 -333 -96 -25 -186 -75 -195
-107 -20 -78 210 -135 393 -96 236 49 451 243 571 514 110 249 168 666 140
1010 -13 160 -29 250 -68 367 -116 357 -390 600 -773 686 -81 18 -323 33 -380
23z"/>
<path d="M3331 2307 c-26 -33 -3 -76 96 -178 150 -155 356 -296 560 -384 48
-21 115 -50 148 -65 168 -76 249 -233 261 -510 6 -130 -8 -369 -25 -412 -18
-48 -384 -189 -696 -268 -503 -128 -1119 -170 -1665 -114 -333 34 -777 164
-1131 331 -139 65 -129 41 -129 313 0 263 20 374 84 469 47 70 100 103 237
150 209 71 448 184 574 271 122 84 205 182 205 242 0 36 -3 40 -37 55 -69 28
-198 -1 -458 -105 -172 -68 -264 -99 -424 -142 -63 -17 -145 -47 -182 -66
-141 -74 -258 -214 -318 -378 -52 -145 -65 -244 -65 -491 0 -307 29 -457 101
-519 39 -35 218 -126 343 -176 439 -176 889 -274 1381 -300 107 -6 268 -15
359 -20 227 -14 405 -12 605 5 218 20 329 37 545 87 405 92 904 301 978 408
54 80 76 221 76 500 -1 239 -16 367 -59 497 -70 209 -206 365 -391 450 -31 14
-104 40 -163 58 -154 47 -309 113 -500 211 -146 76 -174 87 -231 91 -52 4 -68
2 -79 -10z"/>
</g>
</svg>
